# Blender v2.81 (sub 16) OBJ File: 'hammer_of_power_hammer.blend'
# www.blender.org
o hammer
v 0.562500 0.187500 0.281250
v -0.562500 0.187500 0.281250
v -0.562500 0.750000 0.281250
v 0.562500 0.750000 0.281250
v 0.562500 0.187500 -0.281250
v -0.562500 0.187500 -0.281250
v -0.562500 0.750000 -0.281250
v 0.562500 0.750000 -0.281250
v 0.187500 -0.750000 0.093750
v -0.187500 -0.750000 0.093750
v -0.187500 0.187500 0.093750
v 0.187500 0.187500 0.093750
v 0.187500 -0.750000 -0.093750
v -0.187500 -0.750000 -0.093750
v -0.187500 0.187500 -0.093750
v 0.187500 0.187500 -0.093750
vt 0.000000 0.400000
vt 0.000000 1.000000
vt 0.631579 1.000000
vt 0.631579 0.400000
vt 0.631579 0.400000
vt 0.000000 0.400000
vt 0.000000 1.000000
vt 0.631579 1.000000
vt 1.000000 0.400000
vt 1.000000 1.000000
vt 1.000000 1.000000
vt 0.631579 0.400000
vt 1.000000 0.400000
vt 0.631579 1.000000
vt -0.000000 1.000000
vt 0.000000 0.400000
vt 0.526316 0.000000
vt 0.000000 0.000000
vt 0.000000 0.400000
vt 0.526316 0.400000
vt 0.526316 0.000000
vt 0.526316 0.400000
vt 0.000000 0.400000
vt 0.000000 0.000000
vt 1.000000 0.200000
vt 1.000000 0.000000
vt 0.526316 -0.000000
vt 0.526316 0.200000
vt 1.000000 0.200000
vt 0.526316 0.200000
vt 0.526316 -0.000000
vt 1.000000 0.000000
vt 0.736842 0.400000
vt 0.526316 0.200000
vt 0.736842 0.200000
vn -0.0000 0.0000 1.0000
vn -0.0000 0.0000 -1.0000
vn 1.0000 0.0000 0.0000
vn -1.0000 -0.0000 0.0000
vn 0.0000 -1.0000 0.0000
vn 0.0000 1.0000 0.0000
s off
f 1/1/1 4/2/1 3/3/1 2/4/1
f 5/5/2 6/6/2 7/7/2 8/8/2
f 1/9/3 5/5/3 8/8/3 4/10/3
f 2/11/4 3/3/4 7/12/4 6/13/4
f 1/14/5 2/15/5 6/6/5 5/5/5
f 4/2/6 8/16/6 7/12/6 3/3/6
f 9/17/1 12/18/1 11/19/1 10/20/1
f 13/21/2 14/22/2 15/23/2 16/24/2
f 9/25/3 13/26/3 16/27/3 12/28/3
f 10/29/4 11/30/4 15/31/4 14/32/4
f 9/33/5 10/20/5 14/34/5 13/35/5
